<?xml version="1.0" encoding="utf-8"?>
<!-- Generator: Adobe Illustrator 22.0.0, SVG Export Plug-In . SVG Version: 6.00 Build 0)  -->
<svg version="1.1" id="Capa_1" xmlns="http://www.w3.org/2000/svg" xmlns:xlink="http://www.w3.org/1999/xlink" x="0px" y="0px"
	 viewBox="0 0 1025 350" style="enable-background:new 0 0 1025 350;" xml:space="preserve">
<style type="text/css">
	.st0{fill:url(#SVGID_1_);}
	.st1{opacity:0.59;}
	.st2{fill:#FFFFFF;}
</style>
<linearGradient id="SVGID_1_" gradientUnits="userSpaceOnUse" x1="915.7219" y1="-107.4333" x2="-85.0817" y2="596.0529" gradientTransform="matrix(1 0 0 -1 0 352)">
	<stop  offset="0" style="stop-color:#D0EEF8"/>
	<stop  offset="0.1213" style="stop-color:#CCEBF6"/>
	<stop  offset="0.2502" style="stop-color:#BFE2EE"/>
	<stop  offset="0.3826" style="stop-color:#AAD4E2"/>
	<stop  offset="0.5167" style="stop-color:#8CC0D2"/>
	<stop  offset="0.6065" style="stop-color:#74AFC4"/>
	<stop  offset="0.7751" style="stop-color:#9DCAD9"/>
	<stop  offset="0.9173" style="stop-color:#B9DDE7"/>
	<stop  offset="0.9995" style="stop-color:#C4E4EC"/>
</linearGradient>
<rect y="1" class="st0" width="1025" height="350"/>
<g class="st1">
	<polygon class="st2" points="511.9,181.5 512,181.5 511.9,181.6 	"/>
	<polygon class="st2" points="493,181.5 493.4,181.3 493.4,181.8 	"/>
	<polygon class="st2" points="520.9,166 521.5,165.6 521.5,166.3 	"/>
	<polygon class="st2" points="483.3,165.1 485,166 483.3,166.9 	"/>
	<polygon class="st2" points="465,197.1 465.2,197 465.2,197.2 	"/>
	<polygon class="st2" points="511.3,149.3 513.3,150.4 511.3,151.5 	"/>
	<polygon class="st2" points="491.5,150.4 494.1,149 494.1,151.8 	"/>
	<polygon class="st2" points="463.7,166 465.9,164.8 465.9,167.2 	"/>
	<polygon class="st2" points="455.3,180.8 456.7,181.5 455.3,182.3 	"/>
	<polygon class="st2" points="540,165.8 540.2,166 540,166.1 	"/>
	<polygon class="st2" points="539.4,133.7 541.4,134.8 539.4,135.9 	"/>
	<polygon class="st2" points="519.4,134.8 522.3,133.2 522.3,136.4 	"/>
	<polygon class="st2" points="482.4,132.4 486.8,134.8 482.4,137.3 	"/>
	<polygon class="st2" points="461.7,134.8 466.9,131.9 466.9,137.7 	"/>
	<polygon class="st2" points="454.5,148.2 458.4,150.4 454.5,152.6 	"/>
	<polygon class="st2" points="435.5,181.5 437.8,180.2 437.8,182.8 	"/>
	<polygon class="st2" points="427.1,196.1 428.9,197.1 427.1,198.1 	"/>
	<polygon class="st2" points="436.9,212.7 437.2,212.5 437.2,212.8 	"/>
	<polygon class="st2" points="549,150.4 549.6,150.1 549.6,150.7 	"/>
	<polygon class="st2" points="547.7,119.2 550.3,117.8 550.3,120.7 	"/>
	<polygon class="st2" points="510.4,116.6 515.2,119.2 510.4,121.9 	"/>
	<polygon class="st2" points="489.4,119.2 495.2,116 495.2,122.5 	"/>
	<polygon class="st2" points="453.3,115.1 460.8,119.2 453.3,123.4 	"/>
	<polygon class="st2" points="433.8,150.4 438.7,147.7 438.7,153.1 	"/>
	<polygon class="st2" points="426.4,163.8 430.3,166 426.4,168.2 	"/>
	<polygon class="st2" points="407,197.1 410,195.5 410,198.7 	"/>
	<path class="st2" d="M568.1,150.4L568.1,150.4L568.1,150.4z"/>
	<polygon class="st2" points="538.6,101.3 542.9,103.7 538.6,106 	"/>
	<polygon class="st2" points="517.6,103.7 523.2,100.6 523.2,106.8 	"/>
	<polygon class="st2" points="481.3,99.3 489.1,103.7 481.3,108 	"/>
	<polygon class="st2" points="459.4,103.7 468,98.9 468,108.4 	"/>
	<polygon class="st2" points="431.4,119.2 439.9,114.6 439.9,123.9 	"/>
	<polygon class="st2" points="425.3,130.9 432.5,134.8 425.3,138.8 	"/>
	<polygon class="st2" points="405.5,166 410.7,163 410.7,168.9 	"/>
	<polygon class="st2" points="398,178.8 402.9,181.5 398,184.3 	"/>
	<polygon class="st2" points="398.7,211.2 401.4,212.7 398.7,214.1 	"/>
	<polygon class="st2" points="408.4,228.3 409.3,227.8 409.3,228.7 	"/>
	<polygon class="st2" points="577.2,134.8 577.6,134.6 577.6,135 	"/>
	<polygon class="st2" points="567.6,118.4 569.2,119.2 567.6,120.1 	"/>
	<polygon class="st2" points="567,86.3 570.3,88.1 567,89.9 	"/>
	<polygon class="st2" points="546.4,88.1 550.9,85.6 550.9,90.6 	"/>
	<polygon class="st2" points="509.5,84 516.9,88.1 509.5,92.2 	"/>
	<polygon class="st2" points="487.5,88.1 496.1,83.3 496.1,92.9 	"/>
	<polygon class="st2" points="452.3,82.3 462.7,88.1 452.3,93.8 	"/>
	<polygon class="st2" points="429.7,88.1 440.8,82 440.8,94.2 	"/>
	<polygon class="st2" points="424.3,98 434.6,103.7 424.3,109.4 	"/>
	<polygon class="st2" points="403.4,134.8 411.8,130.2 411.8,139.4 	"/>
	<polygon class="st2" points="397.1,146.2 404.6,150.4 397.1,154.6 	"/>
	<polygon class="st2" points="376.3,181.5 383.2,177.7 383.2,185.4 	"/>
	<polygon class="st2" points="369.3,193.3 376.1,197.1 369.3,200.9 	"/>
	<polygon class="st2" points="377.9,212.7 382.4,210.2 382.4,215.2 	"/>
	<polygon class="st2" points="399.4,243.5 400,243.8 399.4,244.2 	"/>
	<polygon class="st2" points="576.2,103.7 578.1,102.6 578.1,104.8 	"/>
	<polygon class="st2" points="575.1,72.5 578.7,70.6 578.7,74.5 	"/>
	<polygon class="st2" points="537.9,69 544.3,72.5 537.9,76 	"/>
	<polygon class="st2" points="516.1,72.5 523.9,68.2 523.9,76.8 	"/>
	<polygon class="st2" points="480.5,66.9 490.6,72.5 480.5,78.1 	"/>
	<polygon class="st2" points="457.8,72.5 468.8,66.4 468.8,78.6 	"/>
	<polygon class="st2" points="423.7,65.8 435.8,72.5 423.7,79.2 	"/>
	<polygon class="st2" points="401.5,103.7 412.7,97.5 412.7,109.9 	"/>
	<polygon class="st2" points="396.1,113.4 406.7,119.2 396.1,125.1 	"/>
	<polygon class="st2" points="374.6,150.4 384,145.2 384,155.6 	"/>
	<polygon class="st2" points="368.5,160.9 377.6,166 368.5,171 	"/>
	<polygon class="st2" points="346.6,197.1 355.9,192 355.9,202.2 	"/>
	<polygon class="st2" points="370.1,225.9 374.4,228.3 370.1,230.6 	"/>
	<polygon class="st2" points="379.5,243.8 381.6,242.6 381.6,245 	"/>
	<polygon class="st2" points="595.9,103.1 596.8,103.7 595.9,104.2 	"/>
	<polygon class="st2" points="566.5,54.2 571.4,56.9 566.5,59.7 	"/>
	<polygon class="st2" points="545.2,56.9 551.5,53.5 551.5,60.4 	"/>
	<polygon class="st2" points="508.9,51.8 518.1,56.9 508.9,62.1 	"/>
	<polygon class="st2" points="486.3,56.9 496.7,51.2 496.7,62.7 	"/>
	<polygon class="st2" points="451.8,50.3 463.7,56.9 451.8,63.6 	"/>
	<polygon class="st2" points="428.8,56.9 441.2,50.1 441.2,63.8 	"/>
	<polygon class="st2" points="400.5,72.5 413.2,65.5 413.2,79.6 	"/>
	<polygon class="st2" points="395.5,81.2 407.9,88.1 395.5,95 	"/>
	<polygon class="st2" points="372.9,119.2 384.9,112.6 384.9,125.9 	"/>
	<polygon class="st2" points="367.7,128.4 379.3,134.8 367.7,141.3 	"/>
	<polygon class="st2" points="345.2,166 356.6,159.6 356.6,172.3 	"/>
	<polygon class="st2" points="339.5,175 351.3,181.5 339.5,188.1 	"/>
	<polygon class="st2" points="340.3,207.5 349.7,212.7 340.3,217.9 	"/>
	<polygon class="st2" points="348.5,228.3 355,224.6 355,231.9 	"/>
	<polygon class="st2" points="370.9,258.4 372.8,259.4 370.9,260.4 	"/>
	<polygon class="st2" points="380.6,275 381,274.8 381,275.2 	"/>
	<polygon class="st2" points="604.8,88.1 606,87.4 606,88.8 	"/>
	<polygon class="st2" points="595.4,71.2 597.8,72.5 595.4,73.9 	"/>
	<polygon class="st2" points="595,39.3 598.7,41.4 595,43.4 	"/>
	<polygon class="st2" points="574.2,41.4 579.2,38.6 579.2,44.1 	"/>
	<polygon class="st2" points="537.5,37.1 545.2,41.4 537.5,45.6 	"/>
	<polygon class="st2" points="515.2,41.4 524.4,36.3 524.4,46.5 	"/>
	<polygon class="st2" points="480.1,35.2 491.3,41.4 480.1,47.6 	"/>
	<polygon class="st2" points="457.2,41.4 469.1,34.7 469.1,48 	"/>
	<polygon class="st2" points="423.5,34.3 436.2,41.4 423.5,48.4 	"/>
	<polygon class="st2" points="400.4,41.4 413.3,34.2 413.3,48.5 	"/>
	<polygon class="st2" points="395.2,49.7 408.4,56.9 395.2,64.2 	"/>
	<polygon class="st2" points="372.1,88.1 385.3,80.8 385.3,95.4 	"/>
	<polygon class="st2" points="367.1,96.3 380.4,103.7 367.1,111 	"/>
	<polygon class="st2" points="343.7,134.8 357.4,127.2 357.4,142.4 	"/>
	<polygon class="st2" points="338.8,142.7 352.7,150.4 338.8,158.1 	"/>
	<polygon class="st2" points="315.3,181.5 329.5,173.7 329.5,189.4 	"/>
	<polygon class="st2" points="310.6,189.1 325,197.1 310.6,205.1 	"/>
	<polygon class="st2" points="316.8,212.7 328.7,206.1 328.7,219.3 	"/>
	<polygon class="st2" points="341.4,240.4 347.6,243.8 341.4,247.3 	"/>
	<polygon class="st2" points="350.3,259.4 354.1,257.3 354.1,261.5 	"/>
	<polygon class="st2" points="371.5,290.4 371.7,290.6 371.5,290.7 	"/>
	<polygon class="st2" points="624.1,87.8 624.6,88.1 624.1,88.3 	"/>
	<polygon class="st2" points="603.9,56.9 606.4,55.6 606.4,58.3 	"/>
	<polygon class="st2" points="603,25.8 606.8,23.7 606.8,27.9 	"/>
	<polygon class="st2" points="566,22.3 572.3,25.8 566,29.3 	"/>
	<polygon class="st2" points="544.4,25.8 551.9,21.6 551.9,30 	"/>
	<polygon class="st2" points="508.6,20.2 518.7,25.8 508.6,31.4 	"/>
	<polygon class="st2" points="485.8,25.8 497,19.6 497,32 	"/>
	<polygon class="st2" points="451.7,19 464,25.8 451.7,32.6 	"/>
	<polygon class="st2" points="428.7,25.8 441.2,18.9 441.2,32.7 	"/>
	<polygon class="st2" points="395.4,18.7 408.1,25.8 395.4,32.9 	"/>
	<polygon class="st2" points="371.9,56.9 385.4,49.5 385.4,64.4 	"/>
	<polygon class="st2" points="367,64.9 380.7,72.5 367,80.1 	"/>
	<polygon class="st2" points="343.1,103.7 357.7,95.6 357.7,111.7 	"/>
	<polygon class="st2" points="338.4,110.9 353.5,119.2 338.4,127.6 	"/>
	<polygon class="st2" points="314.1,150.4 330,141.6 330,159.2 	"/>
	<polygon class="st2" points="310,157 326.2,166 310,174.9 	"/>
	<polygon class="st2" points="285.5,197.1 302.2,187.8 302.2,206.4 	"/>
	<polygon class="st2" points="311.6,221.9 323,228.3 311.6,234.6 	"/>
	<polygon class="st2" points="319,243.8 327.6,239.1 327.6,248.6 	"/>
	<polygon class="st2" points="342.3,273.1 345.7,275 342.3,276.8 	"/>
	<polygon class="st2" points="351.8,290.6 353.3,289.7 353.3,291.4 	"/>
	<polygon class="st2" points="633.1,72.5 633.9,72.1 633.9,72.9 	"/>
	<polygon class="st2" points="623.7,56 625.4,56.9 623.7,57.9 	"/>
	<polygon class="st2" points="594.5,7.4 599.6,10.2 594.5,13 	"/>
	<polygon class="st2" points="573.3,10.2 579.6,6.7 579.6,13.7 	"/>
	<polygon class="st2" points="537.1,5.4 545.8,10.2 537.1,15.1 	"/>
	<polygon class="st2" points="514.7,10.2 524.6,4.7 524.6,15.7 	"/>
	<polygon class="st2" points="480.1,3.9 491.5,10.2 480.1,16.5 	"/>
	<polygon class="st2" points="457.2,10.2 469.1,3.6 469.1,16.8 	"/>
	<polygon class="st2" points="423.7,3.6 435.7,10.2 423.7,16.8 	"/>
	<polygon class="st2" points="401.1,10.2 412.9,3.7 412.9,16.8 	"/>
	<polygon class="st2" points="372.5,25.8 385.1,18.8 385.1,32.8 	"/>
	<polygon class="st2" points="367.1,34.1 380.3,41.4 367.1,48.7 	"/>
	<polygon class="st2" points="343.3,72.5 357.6,64.6 357.6,80.4 	"/>
	<polygon class="st2" points="338.5,79.8 353.4,88.1 338.5,96.4 	"/>
	<polygon class="st2" points="313.6,119.2 330.3,110 330.3,128.5 	"/>
	<polygon class="st2" points="309.6,125.2 327,134.8 309.6,144.5 	"/>
	<polygon class="st2" points="284.6,166 302.7,155.9 302.7,176 	"/>
	<polygon class="st2" points="281.1,171.2 299.7,181.5 281.1,191.9 	"/>
	<polygon class="st2" points="281.7,203.5 298.4,212.7 281.7,221.9 	"/>
	<polygon class="st2" points="287.4,228.3 301.2,220.6 301.2,235.9 	"/>
	<polygon class="st2" points="312.8,255.1 320.5,259.4 312.8,263.7 	"/>
	<polygon class="st2" points="321.4,275 326.4,272.2 326.4,277.8 	"/>
	<polygon class="st2" points="343,305.4 344.3,306.1 343,306.9 	"/>
	<path class="st2" d="M352.8,321.7L352.8,321.7L352.8,321.7z"/>
	<polygon class="st2" points="652.3,72.4 652.5,72.5 652.3,72.7 	"/>
	<polygon class="st2" points="632.4,41.4 634.3,40.3 634.3,42.4 	"/>
	<polygon class="st2" points="623.3,24.2 626.2,25.8 623.3,27.4 	"/>
	<polygon class="st2" points="367.7,3.9 379.1,10.2 367.7,16.5 	"/>
	<polygon class="st2" points="343.9,41.4 357.3,34 357.3,48.8 	"/>
	<polygon class="st2" points="338.8,49.2 352.8,56.9 338.8,64.7 	"/>
	<polygon class="st2" points="314.2,88.1 330,79.3 330,96.9 	"/>
	<polygon class="st2" points="309.7,94.3 326.6,103.7 309.7,113 	"/>
	<polygon class="st2" points="284,134.8 302.9,124.3 302.9,145.3 	"/>
	<polygon class="st2" points="280.7,139.5 300.4,150.4 280.7,161.3 	"/>
	<polygon class="st2" points="255.1,181.5 275.3,170.3 275.3,192.7 	"/>
	<polygon class="st2" points="252.4,185.8 272.8,197.1 252.4,208.4 	"/>
	<polygon class="st2" points="256.1,212.7 274.8,202.3 274.8,223.1 	"/>
	<polygon class="st2" points="282.9,236.5 296.1,243.8 282.9,251.1 	"/>
	<polygon class="st2" points="290,259.4 300,253.9 300,264.9 	"/>
	<polygon class="st2" points="313.9,288.1 318.3,290.6 313.9,293 	"/>
	<polygon class="st2" points="323,306.1 325.6,304.7 325.6,307.6 	"/>
	<polygon class="st2" points="661.4,56.9 661.9,56.7 661.9,57.2 	"/>
	<polygon class="st2" points="652,40.7 653.2,41.4 652,42 	"/>
	<polygon class="st2" points="631.6,10.2 634.7,8.5 634.7,11.9 	"/>
	<polygon class="st2" points="345.4,10.2 356.5,4.1 356.5,16.4 	"/>
	<polygon class="st2" points="339.3,18.9 351.8,25.8 339.3,32.7 	"/>
	<polygon class="st2" points="315.2,56.9 329.5,49 329.5,64.9 	"/>
	<polygon class="st2" points="310.2,64 325.6,72.5 310.2,81 	"/>
	<polygon class="st2" points="284.7,103.7 302.6,93.8 302.6,113.6 	"/>
	<polygon class="st2" points="280.9,108.7 300,119.2 280.9,129.8 	"/>
	<polygon class="st2" points="254.6,150.4 275.5,138.8 275.5,162 	"/>
	<polygon class="st2" points="252.2,154.3 273.3,166 252.2,177.7 	"/>
	<polygon class="st2" points="226.3,197.1 247.6,185.3 247.6,208.9 	"/>
	<polygon class="st2" points="253.2,218.3 271.1,228.3 253.2,238.2 	"/>
	<polygon class="st2" points="258.4,243.8 273.6,235.4 273.6,252.3 	"/>
	<polygon class="st2" points="284.3,270 293.3,275 284.3,280 	"/>
	<polygon class="st2" points="292.5,290.6 298.7,287.1 298.7,294 	"/>
	<polygon class="st2" points="324.4,337.3 324.9,337 324.9,337.6 	"/>
	<polygon class="st2" points="680.4,56.8 680.6,56.9 680.4,57.1 	"/>
	<polygon class="st2" points="660.8,25.8 662.2,25 662.2,26.6 	"/>
	<polygon class="st2" points="651.6,9 653.9,10.2 651.6,11.5 	"/>
	<polygon class="st2" points="316.4,25.8 328.9,18.9 328.9,32.7 	"/>
	<polygon class="st2" points="310.9,33.9 324.4,41.4 310.9,48.9 	"/>
	<polygon class="st2" points="286.1,72.5 301.9,63.8 301.9,81.3 	"/>
	<polygon class="st2" points="281.6,78.6 298.7,88.1 281.6,97.6 	"/>
	<polygon class="st2" points="255.4,119.2 275.1,108.3 275.1,130.2 	"/>
	<polygon class="st2" points="252.2,123.2 273.1,134.8 252.2,146.4 	"/>
	<polygon class="st2" points="226,166 247.7,153.9 247.7,178 	"/>
	<polygon class="st2" points="223.8,169.4 245.7,181.5 223.8,193.7 	"/>
	<polygon class="st2" points="224.2,201.2 244.9,212.7 224.2,224.1 	"/>
	<polygon class="st2" points="227.8,228.3 246.8,217.7 246.8,238.8 	"/>
	<polygon class="st2" points="254.6,251.7 268.4,259.4 254.6,267.1 	"/>
	<polygon class="st2" points="261.3,275 272.2,269 272.2,281 	"/>
	<polygon class="st2" points="285.4,303 291.1,306.1 285.4,309.3 	"/>
	<polygon class="st2" points="294.4,321.7 297.8,319.8 297.8,323.6 	"/>
	<polygon class="st2" points="689.5,41.4 690,41.1 690,41.6 	"/>
	<polygon class="st2" points="680.2,25.3 681.1,25.8 680.2,26.3 	"/>
	<polygon class="st2" points="311.7,4.2 322.6,10.2 311.7,16.3 	"/>
	<polygon class="st2" points="287.5,41.4 301.2,33.8 301.2,49 	"/>
	<polygon class="st2" points="282.4,48.8 297.1,56.9 282.4,65.1 	"/>
	<polygon class="st2" points="257,88.1 274.3,78.5 274.3,97.7 	"/>
	<polygon class="st2" points="253,93.3 271.7,103.7 253,114 	"/>
	<polygon class="st2" points="226.4,134.8 247.5,123.1 247.5,146.5 	"/>
	<polygon class="st2" points="223.9,138.3 245.6,150.4 223.9,162.5 	"/>
	<polygon class="st2" points="197.8,181.5 219.7,169.4 219.7,193.7 	"/>
	<polygon class="st2" points="195.9,185.2 217.3,197.1 195.9,209 	"/>
	<polygon class="st2" points="198.5,212.7 219.3,201.1 219.3,224.2 	"/>
	<polygon class="st2" points="225.3,234.2 242.7,243.8 225.3,253.5 	"/>
	<polygon class="st2" points="230.6,259.4 245.4,251.2 245.4,267.6 	"/>
	<polygon class="st2" points="256.1,285.3 265.5,290.6 256.1,295.8 	"/>
	<polygon class="st2" points="263.8,306.1 270.9,302.1 270.9,310.1 	"/>
	<path class="st2" d="M717.9,56.9L717.9,56.9L717.9,56.9z"/>
	<polygon class="st2" points="708.5,41.2 708.7,41.4 708.5,41.5 	"/>
	<polygon class="st2" points="689.1,10.2 690.2,9.6 690.2,10.9 	"/>
	<polygon class="st2" points="289.5,10.2 300.2,4.3 300.2,16.2 	"/>
	<polygon class="st2" points="283.2,19 295.5,25.8 283.2,32.6 	"/>
	<polygon class="st2" points="258.9,56.9 273.4,48.9 273.4,65 	"/>
	<polygon class="st2" points="254,63.9 269.6,72.5 254,81.2 	"/>
	<polygon class="st2" points="228.1,103.7 246.6,93.4 246.6,113.9 	"/>
	<polygon class="st2" points="224.5,108.2 244.4,119.2 224.5,130.3 	"/>
	<polygon class="st2" points="198,150.4 219.6,138.4 219.6,162.4 	"/>
	<polygon class="st2" points="195.8,153.9 217.5,166 195.8,178 	"/>
	<polygon class="st2" points="170.4,197.1 191.3,185.5 191.3,208.7 	"/>
	<polygon class="st2" points="196.6,217.6 215.8,228.3 196.6,238.9 	"/>
	<polygon class="st2" points="200.8,243.8 218.2,234.2 218.2,253.5 	"/>
	<polygon class="st2" points="227,268.1 239.4,275 227,281.9 	"/>
	<polygon class="st2" points="233.7,290.6 243.9,284.9 243.9,296.2 	"/>
	<polygon class="st2" points="257.3,318.5 263.1,321.7 257.3,324.9 	"/>
	<polygon class="st2" points="266.3,337.3 269.7,335.4 269.7,339.2 	"/>
	<polygon class="st2" points="717.6,25.8 718.1,25.5 718.1,26.1 	"/>
	<polygon class="st2" points="708.3,9.8 709.1,10.2 708.3,10.7 	"/>
	<polygon class="st2" points="260.7,25.8 272.5,19.2 272.5,32.4 	"/>
	<polygon class="st2" points="254.9,34.2 267.8,41.4 254.9,48.6 	"/>
	<polygon class="st2" points="230.4,72.5 245.5,64.1 245.5,80.9 	"/>
	<polygon class="st2" points="225.6,78.9 242.2,88.1 225.6,97.3 	"/>
	<polygon class="st2" points="199.4,119.2 218.9,108.5 218.9,130 	"/>
	<polygon class="st2" points="196.2,123.4 216.7,134.8 196.2,146.2 	"/>
	<polygon class="st2" points="170.3,166 191.3,154.3 191.3,177.6 	"/>
	<polygon class="st2" points="168,169.9 188.9,181.5 168,193.1 	"/>
	<polygon class="st2" points="168.4,201.8 188,212.7 168.4,223.5 	"/>
	<polygon class="st2" points="171.9,228.3 190.5,217.9 190.5,238.6 	"/>
	<polygon class="st2" points="198,251.1 213,259.4 198,267.7 	"/>
	<polygon class="st2" points="204,275 216.6,268 216.6,282 	"/>
	<polygon class="st2" points="228.3,301.5 236.7,306.1 228.3,310.8 	"/>
	<polygon class="st2" points="236.4,321.7 242.5,318.3 242.5,325.1 	"/>
	<polygon class="st2" points="255.9,4.7 265.8,10.2 255.9,15.7 	"/>
	<polygon class="st2" points="232.3,41.4 244.6,34.5 244.6,48.2 	"/>
	<polygon class="st2" points="226.7,49.6 240,56.9 226.7,64.3 	"/>
	<polygon class="st2" points="201.7,88.1 217.7,79.2 217.7,97 	"/>
	<polygon class="st2" points="197.2,94 214.7,103.7 197.2,113.4 	"/>
	<polygon class="st2" points="171.1,134.8 190.9,123.8 190.9,145.8 	"/>
	<polygon class="st2" points="168.1,139.1 188.5,150.4 168.1,161.7 	"/>
	<polygon class="st2" points="142.9,181.5 162.9,170.4 162.9,192.6 	"/>
	<polygon class="st2" points="140.4,186.4 159.7,197.1 140.4,207.8 	"/>
	<polygon class="st2" points="143.9,212.7 162.4,202.4 162.4,223 	"/>
	<polygon class="st2" points="169.6,234.9 185.7,243.8 169.6,252.8 	"/>
	<polygon class="st2" points="174.7,259.4 189.1,251.4 189.1,267.4 	"/>
	<polygon class="st2" points="199.6,284.9 209.9,290.6 199.6,296.2 	"/>
	<polygon class="st2" points="206.9,306.1 215.2,301.5 215.2,310.7 	"/>
	<polygon class="st2" points="229.8,335 233.8,337.3 229.8,339.5 	"/>
	<polygon class="st2" points="234.3,10.2 243.6,5.1 243.6,15.4 	"/>
	<polygon class="st2" points="227.6,20 238.1,25.8 227.6,31.6 	"/>
	<polygon class="st2" points="204.1,56.9 216.5,50.1 216.5,63.8 	"/>
	<polygon class="st2" points="198.5,65 212.1,72.5 198.5,80.1 	"/>
	<polygon class="st2" points="173.2,103.7 189.9,94.4 189.9,112.9 	"/>
	<polygon class="st2" points="168.9,109.2 187,119.2 168.9,129.3 	"/>
	<polygon class="st2" points="143.1,150.4 162.8,139.5 162.8,161.3 	"/>
	<polygon class="st2" points="140.3,155.1 160,166 140.3,176.9 	"/>
	<polygon class="st2" points="116,197.1 134.2,187 134.2,207.2 	"/>
	<polygon class="st2" points="141.4,219.2 157.7,228.3 141.4,237.3 	"/>
	<polygon class="st2" points="146.4,243.8 161.2,235.6 161.2,252 	"/>
	<polygon class="st2" points="171.2,268.7 182.5,275 171.2,281.3 	"/>
	<polygon class="st2" points="177.8,290.6 187.6,285.1 187.6,296 	"/>
	<polygon class="st2" points="201,318.3 207.1,321.7 201,325.1 	"/>
	<polygon class="st2" points="209.7,337.3 213.7,335 213.7,339.5 	"/>
	<polygon class="st2" points="206.1,25.8 215.5,20.6 215.5,31 	"/>
	<polygon class="st2" points="199.6,35.6 210,41.4 199.6,47.1 	"/>
	<polygon class="st2" points="176,72.5 188.5,65.6 188.5,79.5 	"/>
	<polygon class="st2" points="170.2,80.3 184.4,88.1 170.2,95.9 	"/>
	<polygon class="st2" points="144.7,119.2 162,109.7 162,128.8 	"/>
	<polygon class="st2" points="140.7,124.6 159.1,134.8 140.7,145 	"/>
	<polygon class="st2" points="115.5,166 134.4,155.5 134.4,176.5 	"/>
	<polygon class="st2" points="112.6,171.3 131.1,181.5 112.6,191.8 	"/>
	<polygon class="st2" points="113.4,203.7 129.6,212.7 113.4,221.7 	"/>
	<polygon class="st2" points="118.2,228.3 133.1,220 133.1,236.5 	"/>
	<polygon class="st2" points="142.9,252.8 154.8,259.4 142.9,266 	"/>
	<polygon class="st2" points="149.5,275 159.6,269.4 159.6,280.6 	"/>
	<polygon class="st2" points="172.5,302.1 179.8,306.1 172.5,310.1 	"/>
	<polygon class="st2" points="180.6,321.7 186.2,318.6 186.2,324.8 	"/>
	<polygon class="st2" points="200.6,6.1 207.9,10.2 200.6,14.3 	"/>
	<polygon class="st2" points="178.1,41.4 187.4,36.2 187.4,46.5 	"/>
	<polygon class="st2" points="171.6,51.3 181.7,56.9 171.6,62.6 	"/>
	<polygon class="st2" points="147.4,88.1 160.6,80.8 160.6,95.4 	"/>
	<polygon class="st2" points="141.9,95.4 156.8,103.7 141.9,111.9 	"/>
	<polygon class="st2" points="116.3,134.8 134,125 134,144.6 	"/>
	<polygon class="st2" points="112.7,140.2 131,150.4 112.7,160.6 	"/>
	<polygon class="st2" points="88.1,181.5 106,171.6 106,191.5 	"/>
	<polygon class="st2" points="85,187.7 102,197.1 85,206.5 	"/>
	<polygon class="st2" points="89.7,212.7 105.2,204.1 105.2,221.3 	"/>
	<polygon class="st2" points="114.8,237.2 126.8,243.8 114.8,250.5 	"/>
	<polygon class="st2" points="121.2,259.4 131.6,253.6 131.6,265.2 	"/>
	<polygon class="st2" points="144.3,286.4 151.9,290.6 144.3,294.7 	"/>
	<polygon class="st2" points="152.1,306.1 158.3,302.7 158.3,309.6 	"/>
	<polygon class="st2" points="173.9,335.5 177.1,337.3 173.9,339.1 	"/>
	<polygon class="st2" points="180.1,10.2 186.4,6.8 186.4,13.7 	"/>
	<polygon class="st2" points="172.6,21.9 179.7,25.8 172.6,29.7 	"/>
	<polygon class="st2" points="150.2,56.9 159.2,52 159.2,61.9 	"/>
	<polygon class="st2" points="143.4,66.8 153.8,72.5 143.4,78.3 	"/>
	<polygon class="st2" points="118.6,103.7 132.9,95.8 132.9,111.6 	"/>
	<polygon class="st2" points="113.5,110.4 129.4,119.2 113.5,128.1 	"/>
	<polygon class="st2" points="88.1,150.4 106,140.4 106,160.3 	"/>
	<polygon class="st2" points="84.7,156 102.7,166 84.7,175.9 	"/>
	<polygon class="st2" points="60.8,197.1 77.5,187.8 77.5,206.4 	"/>
	<polygon class="st2" points="86.4,221 99.4,228.3 86.4,235.5 	"/>
	<polygon class="st2" points="92.8,243.8 103.7,237.8 103.7,249.9 	"/>
	<polygon class="st2" points="116.3,270.9 123.7,275 116.3,279.1 	"/>
	<polygon class="st2" points="124,290.6 130.2,287.1 130.2,294 	"/>
	<polygon class="st2" points="145.6,319.6 149.4,321.7 145.6,323.8 	"/>
	<polygon class="st2" points="152.3,25.8 158.2,22.6 158.2,29 	"/>
	<polygon class="st2" points="144.6,37.6 151.4,41.4 144.6,45.2 	"/>
	<polygon class="st2" points="121.8,72.5 131.3,67.3 131.3,77.8 	"/>
	<polygon class="st2" points="114.9,81.7 126.5,88.1 114.9,94.5 	"/>
	<polygon class="st2" points="89.7,119.2 105.2,110.7 105.2,127.8 	"/>
	<polygon class="st2" points="85.1,125.5 101.9,134.8 85.1,144.1 	"/>
	<polygon class="st2" points="60,166 77.9,156 77.9,175.9 	"/>
	<polygon class="st2" points="56.7,171.7 74.4,181.5 56.7,191.4 	"/>
	<polygon class="st2" points="57.7,204.5 72.5,212.7 57.7,220.9 	"/>
	<polygon class="st2" points="63.6,228.3 76.1,221.3 76.1,235.2 	"/>
	<polygon class="st2" points="87.9,254.8 96.2,259.4 87.9,264 	"/>
	<polygon class="st2" points="95.7,275 102.2,271.4 102.2,278.6 	"/>
	<polygon class="st2" points="117.5,303.9 121.4,306.1 117.5,308.3 	"/>
	<polygon class="st2" points="126.3,321.7 129.1,320.2 129.1,323.2 	"/>
	<polygon class="st2" points="145.6,8.1 149.5,10.2 145.6,12.4 	"/>
	<polygon class="st2" points="124.3,41.4 130.1,38.2 130.1,44.6 	"/>
	<polygon class="st2" points="116.4,53.1 123.5,56.9 116.4,60.8 	"/>
	<polygon class="st2" points="92.7,88.1 103.7,82 103.7,94.2 	"/>
	<polygon class="st2" points="86.3,96.3 99.6,103.7 86.3,111 	"/>
	<polygon class="st2" points="60.8,134.8 77.5,125.6 77.5,144.1 	"/>
	<polygon class="st2" points="56.7,140.5 74.4,150.4 56.7,160.2 	"/>
	<polygon class="st2" points="31.8,181.5 49.9,171.5 49.9,191.6 	"/>
	<polygon class="st2" points="28.8,187.5 46,197.1 28.8,206.7 	"/>
	<polygon class="st2" points="33.9,212.7 48.9,204.3 48.9,221 	"/>
	<polygon class="st2" points="59.3,238.3 69.2,243.8 59.3,249.3 	"/>
	<polygon class="st2" points="66.8,259.4 74.6,255.1 74.6,263.7 	"/>
	<polygon class="st2" points="89.2,288.1 93.6,290.6 89.2,293 	"/>
	<polygon class="st2" points="98,306.1 101.1,304.4 101.1,307.8 	"/>
	<polygon class="st2" points="126.2,10.2 129.1,8.6 129.1,11.8 	"/>
	<polygon class="st2" points="117.6,23.8 121.2,25.8 117.6,27.8 	"/>
	<polygon class="st2" points="95.9,56.9 102.1,53.5 102.1,60.4 	"/>
	<polygon class="st2" points="88,68.1 96,72.5 88,77 	"/>
	<polygon class="st2" points="63.3,103.7 76.3,96.5 76.3,110.9 	"/>
	<polygon class="st2" points="57.6,110.9 72.7,119.2 57.6,127.6 	"/>
	<polygon class="st2" points="31.8,150.4 49.9,140.3 49.9,160.5 	"/>
	<polygon class="st2" points="28.3,155.6 47,166 28.3,176.3 	"/>
	<polygon class="st2" points="3.9,197.1 21.8,187.2 21.8,207 	"/>
	<polygon class="st2" points="30.3,221.2 43,228.3 30.3,235.3 	"/>
	<polygon class="st2" points="37.3,243.8 47.2,238.3 47.2,249.3 	"/>
	<polygon class="st2" points="60.8,272 66.1,275 60.8,277.9 	"/>
	<polygon class="st2" points="69.4,290.6 73.2,288.5 73.2,292.7 	"/>
	<polygon class="st2" points="99.7,337.3 100.2,337 100.2,337.6 	"/>
	<polygon class="st2" points="98.1,25.8 101,24.2 101,27.4 	"/>
	<polygon class="st2" points="89.3,39.1 93.4,41.4 89.3,43.7 	"/>
	<polygon class="st2" points="66.9,72.5 74.5,68.3 74.5,76.7 	"/>
	<polygon class="st2" points="59.2,82.4 69.4,88.1 59.2,93.8 	"/>
	<polygon class="st2" points="33.7,119.2 49,110.8 49,127.7 	"/>
	<polygon class="st2" points="28.8,125.2 46,134.8 28.8,144.4 	"/>
	<polygon class="st2" points="3,166 22.2,155.3 22.2,176.7 	"/>
	<polygon class="st2" points="0,170.8 19.3,181.5 0,192.2 	"/>
	<polygon class="st2" points="1,203.7 17.2,212.7 1,221.7 	"/>
	<polygon class="st2" points="7,228.3 20.2,220.9 20.2,235.6 	"/>
	<polygon class="st2" points="32,255.3 39.5,259.4 32,263.5 	"/>
	<polygon class="st2" points="40.4,275 45.6,272.1 45.6,277.8 	"/>
	<polygon class="st2" points="61.9,305 64,306.1 61.9,307.3 	"/>
	<polygon class="st2" points="90.3,9.5 91.5,10.2 90.3,10.9 	"/>
	<polygon class="st2" points="69.6,41.4 73.2,39.4 73.2,43.3 	"/>
	<polygon class="st2" points="60.9,54.1 66,56.9 60.9,59.8 	"/>
	<polygon class="st2" points="37.1,88.1 47.3,82.5 47.3,93.7 	"/>
	<polygon class="st2" points="30.2,96.4 43.2,103.7 30.2,110.9 	"/>
	<polygon class="st2" points="4,134.8 21.7,125 21.7,144.6 	"/>
	<polygon class="st2" points="0,139.7 19.3,150.4 0,161.1 	"/>
	<polygon class="st2" points="2.9,237.9 13.5,243.8 2.9,249.7 	"/>
	<polygon class="st2" points="10.6,259.4 18.4,255.1 18.4,263.7 	"/>
	<polygon class="st2" points="33.4,288.7 36.8,290.6 33.4,292.4 	"/>
	<polygon class="st2" points="42.6,306.1 44.5,305.1 44.5,307.2 	"/>
	<path class="st2" d="M62.6,337.3L62.6,337.3L62.6,337.3z"/>
	<polygon class="st2" points="71.4,10.2 72.2,9.8 72.2,10.7 	"/>
	<polygon class="st2" points="62,24.8 63.8,25.8 62,26.8 	"/>
	<polygon class="st2" points="40.6,56.9 45.5,54.2 45.5,59.7 	"/>
	<polygon class="st2" points="32.1,68.5 39.3,72.5 32.1,76.5 	"/>
	<polygon class="st2" points="7,103.7 20.2,96.3 20.2,111 	"/>
	<polygon class="st2" points="1.1,110.4 17.1,119.2 1.1,128.1 	"/>
	<polygon class="st2" points="4.6,272 10.1,275 4.6,278 	"/>
	<polygon class="st2" points="13.5,290.6 17,288.6 17,292.5 	"/>
	<polygon class="st2" points="42.8,25.8 44.4,24.9 44.4,26.7 	"/>
	<polygon class="st2" points="33.6,39.8 36.4,41.4 33.6,43 	"/>
	<polygon class="st2" points="11,72.5 18.2,68.5 18.2,76.5 	"/>
	<polygon class="st2" points="3,82.4 13.3,88.1 3,93.8 	"/>
	<polygon class="st2" points="34.4,10.1 34.7,10.2 34.4,10.4 	"/>
	<polygon class="st2" points="13.9,41.4 16.7,39.8 16.7,42.9 	"/>
	<polygon class="st2" points="4.9,54.3 9.6,56.9 4.9,59.6 	"/>
	<polygon class="st2" points="15.7,10.2 15.9,10.1 15.9,10.3 	"/>
	<polygon class="st2" points="6,25.1 7.3,25.8 6,26.5 	"/>
</g>
</svg>
