<?xml version="1.0" encoding="utf-8"?>
<!-- Generator: Adobe Illustrator 22.0.0, SVG Export Plug-In . SVG Version: 6.00 Build 0)  -->
<svg version="1.1" id="Capa_1" xmlns="http://www.w3.org/2000/svg" xmlns:xlink="http://www.w3.org/1999/xlink" x="0px" y="0px"
	 viewBox="0 0 69 46" style="enable-background:new 0 0 69 46;" xml:space="preserve">
<style type="text/css">
	.st0{fill:#015473;}
</style>
<g>
	<g>
		<path class="st0" d="M68.8,17.6c0,0,0,0.1,0,0.1c-0.1,1.1-0.2,2.2-0.5,3.3c-0.3,1-0.6,2.1-1,3.1c-1.1,2.6-2.7,4.8-4.8,6.6
			c-2.2,1.8-4.6,3-7.4,3.5c-0.7,0.1-1.4,0.2-2.1,0.3c-0.5,0.1-1,0.1-1.5,0.1c-3.3,0-6.7,0-10,0c-0.1,0-0.1,0-0.2,0
			c0.1-0.2,0.1-0.5,0.2-0.7c0.6-2.3,1.2-4.7,1.9-7c0.5-1.9,1.8-3.1,3.8-3.5c0.3-0.1,0.6-0.1,0.8-0.1c1.2,0,2.3,0,3.5,0
			c2.3-0.1,4-1.1,5.2-3c0.5-0.8,0.8-1.7,0.8-2.7c0.1-1.4-0.3-2.7-1.1-3.9c-0.9-1.4-2.2-2.2-3.9-2.5c-0.4-0.1-0.8-0.1-1.2-0.1
			c-2.1,0-4.1,0-6.2,0c-0.2,0-0.2,0-0.3,0.2c-0.9,3.2-1.7,6.5-2.6,9.7c-0.8,3.1-1.6,6.1-2.5,9.2c-1.1,4-2.1,8.1-3.3,12.1
			c-0.5,1.9-1.8,3.1-3.8,3.5c-0.2,0-0.5,0.1-0.7,0.1c-2.6,0-5.2,0-7.8,0c-0.1,0-0.1,0-0.2,0c0.1-0.4,0.2-0.7,0.3-1
			c1.3-4.7,2.5-9.4,3.8-14.1c1.4-5.1,2.7-10.2,4.1-15.3c1-3.7,2-7.3,2.9-11C35,4,35.2,3.4,35.4,2.9C36.1,1.3,37.3,0.4,39,0
			C39.2,0,39.3,0,39.5,0c4.3,0,8.6,0,12.8,0c0,0,0.1,0,0.1,0c0.3,0,0.7,0,1,0.1c0.6,0.1,1.3,0.2,1.9,0.3c1.7,0.4,3.4,1,4.9,1.9
			c1.9,1.1,3.6,2.6,5,4.4c1.5,1.9,2.4,4,3,6.4c0.2,0.8,0.4,1.7,0.4,2.5c0,0.2,0,0.4,0.1,0.5C68.8,16.6,68.8,17.1,68.8,17.6z"/>
	</g>
	<g>
		<path class="st0" d="M30.2,11.3c-0.1,0.4-0.2,0.8-0.3,1.2c-0.6,2.2-1.1,4.3-1.7,6.5c-0.5,1.8-1.7,2.9-3.4,3.4
			c-0.3,0.1-0.7,0.1-1.1,0.1c-2.1,0-4.2,0-6.3,0c-1.5,0-2.8,0.5-3.9,1.5c-1.1,1-1.8,2.2-2,3.7c-0.5,2.8,1.2,6.2,4.7,6.9
			c0.4,0.1,0.9,0.1,1.3,0.1c1.2,0,2.5,0,3.7,0c1,0,1.8,0.7,2.1,1.6c0.1,0.4,0.1,0.7,0,1.1c-0.7,2.8-1.5,5.5-2.2,8.3
			c0,0.1-0.1,0.2-0.2,0.2c-1.6,0-3.1,0-4.7,0c-1.3,0-2.5-0.2-3.8-0.6C10,44.7,7.9,43.6,6.1,42c-2.6-2.2-4.4-5-5.4-8.3
			c-0.3-0.9-0.5-1.8-0.5-2.8c-0.1-0.8-0.1-1.5-0.1-2.3c0-1.6,0.3-3.1,0.7-4.6c0.5-1.8,1.2-3.5,2.2-5.1c2.1-3.3,5-5.5,8.7-6.8
			c1-0.4,2.1-0.6,3.2-0.8c0.4-0.1,0.9-0.1,1.4-0.1c0.6,0,1.1,0,1.7,0c4,0,8.1,0,12.1,0C30.1,11.3,30.1,11.3,30.2,11.3z"/>
	</g>
</g>
</svg>
